<svg width="16" height="16" viewBox="0 0 16 16" fill="none" xmlns="http://www.w3.org/2000/svg">
<path d="M0 1C0 0.447715 0.447715 0 1 0H7.45946C9.14595 0 10.6306 0.327619 11.9135 0.982858C13.2108 1.62286 14.2126 2.54476 14.9189 3.74857C15.6396 4.95238 16 6.36952 16 8C16 9.63048 15.6396 11.0476 14.9189 12.2514C14.2126 13.4552 13.2108 14.3848 11.9135 15.04C10.6306 15.68 9.14595 16 7.45946 16H1C0.447715 16 0 15.5523 0 15V1ZM7.24324 11.7943C8.33874 11.7943 9.21081 11.4667 9.85946 10.8114C10.5225 10.141 10.8541 9.20381 10.8541 8C10.8541 6.79619 10.5225 5.86667 9.85946 5.21143C9.21081 4.54095 8.33874 4.20571 7.24324 4.20571H6.1027C5.55042 4.20571 5.1027 4.65343 5.1027 5.20571V10.7943C5.1027 11.3466 5.55042 11.7943 6.1027 11.7943H7.24324Z" fill="#848D98"/>
</svg>
