<svg width="18" height="18" viewBox="0 0 18 18" fill="none" xmlns="http://www.w3.org/2000/svg">
<path d="M0 2.88C0 1.87191 0 1.36786 0.196188 0.982817C0.36876 0.644125 0.644125 0.36876 0.982817 0.196188C1.36786 0 1.87191 0 2.88 0H5.22C6.22809 0 6.73214 0 7.11718 0.196188C7.45587 0.36876 7.73124 0.644125 7.90381 0.982817C8.1 1.36786 8.1 1.87191 8.1 2.88V3.42C8.1 4.42809 8.1 4.93214 7.90381 5.31718C7.73124 5.65587 7.45587 5.93124 7.11718 6.10381C6.73214 6.3 6.22809 6.3 5.22 6.3H2.88C1.87191 6.3 1.36786 6.3 0.982817 6.10381C0.644125 5.93124 0.36876 5.65587 0.196188 5.31718C0 4.93214 0 4.42809 0 3.42V2.88Z" fill="#848D98"/>
<path d="M9.9 2.88C9.9 1.87191 9.9 1.36786 10.0962 0.982817C10.2688 0.644125 10.5441 0.36876 10.8828 0.196188C11.2679 0 11.7719 0 12.78 0H15.12C16.1281 0 16.6321 0 17.0172 0.196188C17.3559 0.36876 17.6312 0.644125 17.8038 0.982817C18 1.36786 18 1.87191 18 2.88V7.02C18 8.02809 18 8.53214 17.8038 8.91718C17.6312 9.25587 17.3559 9.53124 17.0172 9.70381C16.6321 9.9 16.1281 9.9 15.12 9.9H12.78C11.7719 9.9 11.2679 9.9 10.8828 9.70381C10.5441 9.53124 10.2688 9.25587 10.0962 8.91718C9.9 8.53214 9.9 8.02809 9.9 7.02V2.88Z" fill="#848D98"/>
<path d="M0 10.98C0 9.97191 0 9.46786 0.196188 9.08282C0.36876 8.74413 0.644125 8.46876 0.982817 8.29619C1.36786 8.1 1.87191 8.1 2.88 8.1H5.22C6.22809 8.1 6.73214 8.1 7.11718 8.29619C7.45587 8.46876 7.73124 8.74413 7.90381 9.08282C8.1 9.46786 8.1 9.97191 8.1 10.98V15.12C8.1 16.1281 8.1 16.6321 7.90381 17.0172C7.73124 17.3559 7.45587 17.6312 7.11718 17.8038C6.73214 18 6.22809 18 5.22 18H2.88C1.87191 18 1.36786 18 0.982817 17.8038C0.644125 17.6312 0.36876 17.3559 0.196188 17.0172C0 16.6321 0 16.1281 0 15.12V10.98Z" fill="#848D98"/>
<path d="M9.9 14.58C9.9 13.5719 9.9 13.0679 10.0962 12.6828C10.2688 12.3441 10.5441 12.0688 10.8828 11.8962C11.2679 11.7 11.7719 11.7 12.78 11.7H15.12C16.1281 11.7 16.6321 11.7 17.0172 11.8962C17.3559 12.0688 17.6312 12.3441 17.8038 12.6828C18 13.0679 18 13.5719 18 14.58V15.12C18 16.1281 18 16.6321 17.8038 17.0172C17.6312 17.3559 17.3559 17.6312 17.0172 17.8038C16.6321 18 16.1281 18 15.12 18H12.78C11.7719 18 11.2679 18 10.8828 17.8038C10.5441 17.6312 10.2688 17.3559 10.0962 17.0172C9.9 16.6321 9.9 16.1281 9.9 15.12V14.58Z" fill="#848D98"/>
</svg>
