<svg width="24" height="24" viewBox="0 0 24 24" fill="none" xmlns="http://www.w3.org/2000/svg">
<path fill-rule="evenodd" clip-rule="evenodd" d="M7.60106 15.399C7.93301 15.7309 7.93301 16.2691 7.60106 16.601C7.26912 16.933 6.73093 16.933 6.39898 16.601L2.39898 12.601C2.06704 12.2691 2.06704 11.7309 2.39898 11.399L6.39898 7.39896C6.73093 7.06701 7.26912 7.06701 7.60106 7.39896C7.93301 7.73091 7.93301 8.2691 7.60106 8.60104L5.05211 11.15L10 11.15L10 12.85L5.05211 12.85L7.60106 15.399ZM10 12.85L10 16C10 17.6569 11.3432 19 13 19L19 19C20.6569 19 22 17.6569 22 16L22 8C22 6.34315 20.6569 5 19 5L13 5C11.3432 5 10 6.34315 10 8L10 11.15L15 11.15C15.4695 11.15 15.85 11.5306 15.85 12C15.85 12.4694 15.4695 12.85 15 12.85L10 12.85Z" fill="#848D98"/>
</svg>
