<svg width="20" height="20" viewBox="0 0 20 20" fill="none" xmlns="http://www.w3.org/2000/svg">
<g clip-path="url(#clip0_23_1613)">
<path d="M1 17C1 17.5523 1.44772 18 2 18H18C18.5523 18 19 17.5523 19 17V15C19 14.4477 18.5523 14 18 14H2C1.44772 14 1 14.4477 1 15V17ZM2.8 15.9C2.8 15.4029 3.20294 15 3.7 15C4.19706 15 4.6 15.4029 4.6 15.9V16.1C4.6 16.5971 4.19706 17 3.7 17C3.20294 17 2.8 16.5971 2.8 16.1V15.9ZM2 2C1.44772 2 1 2.44772 1 3V5C1 5.55228 1.44772 6 2 6H18C18.5523 6 19 5.55228 19 5V3C19 2.44772 18.5523 2 18 2H2ZM4.6 4.1C4.6 4.59706 4.19706 5 3.7 5C3.20294 5 2.8 4.59706 2.8 4.1V3.9C2.8 3.40294 3.20294 3 3.7 3C4.19706 3 4.6 3.40294 4.6 3.9V4.1ZM1 11C1 11.5523 1.44772 12 2 12H18C18.5523 12 19 11.5523 19 11V9C19 8.44772 18.5523 8 18 8H2C1.44772 8 1 8.44772 1 9V11ZM2.8 9.9C2.8 9.40294 3.20294 9 3.7 9C4.19706 9 4.6 9.40294 4.6 9.9V10.1C4.6 10.5971 4.19706 11 3.7 11C3.20294 11 2.8 10.5971 2.8 10.1V9.9Z" fill="#848D98"/>
</g>
<defs>
<clipPath id="clip0_23_1613">
<rect width="20" height="20" fill="white"/>
</clipPath>
</defs>
</svg>
