<svg width="19" height="19" viewBox="0 0 19 19" fill="none" xmlns="http://www.w3.org/2000/svg">
<path fill-rule="evenodd" clip-rule="evenodd" d="M14.4452 0.0888672V0.938867V1.83965H17C18.1046 1.83965 19 2.73508 19 3.83965V5.54444V7.24444V16.054C19 17.1586 18.1046 18.054 17 18.054H2.98401C1.87944 18.054 0.984009 17.1586 0.984009 16.054V7.24444V5.54444V3.83965C0.984009 2.73508 1.87944 1.83965 2.98401 1.83965H5.53876V0.938871V0.0888713H7.23876V0.938871V1.83965H12.7452V0.938867V0.0888672H14.4452ZM12.7452 3.53965H7.23876V3.64126V4.49126H5.53876V3.64126V3.53965H2.98401C2.81832 3.53965 2.68401 3.67396 2.68401 3.83965V5.54444H17.3V3.83965C17.3 3.67396 17.1657 3.53965 17 3.53965H14.4452V3.64126V4.49126H12.7452V3.64126V3.53965ZM4.74089 9.3708C4.8111 9.3708 4.86801 9.31388 4.86801 9.24367C4.86801 9.17346 4.8111 9.11655 4.74089 9.11655C4.67068 9.11655 4.61376 9.17346 4.61376 9.24367C4.61376 9.31388 4.67068 9.3708 4.74089 9.3708ZM4.74089 10.3708C5.36338 10.3708 5.86801 9.86616 5.86801 9.24367C5.86801 8.62118 5.36338 8.11655 4.74089 8.11655C4.11839 8.11655 3.61376 8.62118 3.61376 9.24367C3.61376 9.86616 4.11839 10.3708 4.74089 10.3708ZM9.81295 9.3708C9.74274 9.3708 9.68582 9.31388 9.68582 9.24367C9.68582 9.17346 9.74274 9.11655 9.81295 9.11655C9.88316 9.11655 9.94007 9.17346 9.94007 9.24367C9.94007 9.31388 9.88316 9.3708 9.81295 9.3708ZM10.9401 9.24367C10.9401 9.86616 10.4354 10.3708 9.81295 10.3708C9.19045 10.3708 8.68582 9.86616 8.68582 9.24367C8.68582 8.62118 9.19045 8.11655 9.81295 8.11655C10.4354 8.11655 10.9401 8.62118 10.9401 9.24367ZM14.7579 9.24367C14.7579 9.31388 14.8148 9.3708 14.885 9.3708C14.9552 9.3708 15.0121 9.31388 15.0121 9.24367C15.0121 9.17346 14.9552 9.11655 14.885 9.11655C14.8148 9.11655 14.7579 9.17346 14.7579 9.24367ZM14.885 10.3708C15.5075 10.3708 16.0121 9.86616 16.0121 9.24367C16.0121 8.62118 15.5075 8.11655 14.885 8.11655C14.2625 8.11655 13.7579 8.62118 13.7579 9.24367C13.7579 9.86616 14.2625 10.3708 14.885 10.3708ZM4.74089 13.625C4.8111 13.625 4.86801 13.682 4.86801 13.7522C4.86801 13.8224 4.8111 13.8793 4.74089 13.8793C4.67068 13.8793 4.61376 13.8224 4.61376 13.7522C4.61376 13.682 4.67068 13.625 4.74089 13.625ZM5.86801 13.7522C5.86801 14.3747 5.36338 14.8793 4.74089 14.8793C4.11839 14.8793 3.61376 14.3747 3.61376 13.7522C3.61376 13.1297 4.11839 12.625 4.74089 12.625C5.36338 12.625 5.86801 13.1297 5.86801 13.7522ZM9.81295 13.625C9.74274 13.625 9.68582 13.682 9.68582 13.7522C9.68582 13.8224 9.74274 13.8793 9.81295 13.8793C9.88316 13.8793 9.94007 13.8224 9.94007 13.7522C9.94007 13.682 9.88316 13.625 9.81295 13.625ZM9.81295 14.8793C10.4354 14.8793 10.9401 14.3747 10.9401 13.7522C10.9401 13.1297 10.4354 12.625 9.81295 12.625C9.19045 12.625 8.68582 13.1297 8.68582 13.7522C8.68582 14.3747 9.19045 14.8793 9.81295 14.8793ZM14.7579 13.7522C14.7579 13.682 14.8148 13.625 14.885 13.625C14.9552 13.625 15.0121 13.682 15.0121 13.7522C15.0121 13.8224 14.9552 13.8793 14.885 13.8793C14.8148 13.8793 14.7579 13.8224 14.7579 13.7522ZM16.0121 13.7522C16.0121 14.3747 15.5075 14.8793 14.885 14.8793C14.2625 14.8793 13.7579 14.3747 13.7579 13.7522C13.7579 13.1297 14.2625 12.625 14.885 12.625C15.5075 12.625 16.0121 13.1297 16.0121 13.7522Z" fill="#848D98"/>
</svg>
