<svg width="40" height="40" viewBox="0 0 40 40" fill="none" xmlns="http://www.w3.org/2000/svg">
<g clip-path="url(#clip0_23_1644)">
<path fill-rule="evenodd" clip-rule="evenodd" d="M19.0573 17.5168C18.6815 18.9461 17.3805 20.0002 15.8333 20.0002C13.9924 20.0002 12.5 18.5078 12.5 16.6668C12.5 14.8259 13.9924 13.3335 15.8333 13.3335C17.3805 13.3335 18.6815 14.3876 19.0573 15.8168H25.8333C26.3028 15.8168 26.6833 16.1974 26.6833 16.6668C26.6833 17.1363 26.3028 17.5168 25.8333 17.5168H19.0573ZM13.3167 23.3335C13.3167 22.8641 13.6972 22.4835 14.1667 22.4835H20.9427C21.3185 21.0543 22.6195 20.0002 24.1667 20.0002C26.0076 20.0002 27.5 21.4925 27.5 23.3335C27.5 25.1744 26.0076 26.6668 24.1667 26.6668C22.6195 26.6668 21.3185 25.6127 20.9427 24.1835H14.1667C13.6972 24.1835 13.3167 23.8029 13.3167 23.3335Z" fill="#AFBAC8"/>
<circle cx="20" cy="20" r="19.5" stroke="#E5E7EB"/>
</g>
<defs>
<clipPath id="clip0_23_1644">
<rect width="40" height="40" fill="white"/>
</clipPath>
</defs>
</svg>
